<svg width="800" height="800" viewBox="0 0 800 800" fill="none" xmlns="http://www.w3.org/2000/svg">
<path d="M680 0H120C53.7258 0 0 53.7258 0 120V680C0 746.274 53.7258 800 120 800H680C746.274 800 800 746.274 800 680V120C800 53.7258 746.274 0 680 0Z" fill="#2979FF"/>
<path d="M172.75 399.5C172.75 354.867 182.717 315 202.65 279.9C223.017 244.367 250.533 216.85 285.2 197.35C320.3 177.417 359.517 167.45 402.85 167.45C453.55 167.45 497.967 180.45 536.1 206.45C574.233 232.45 600.883 268.417 616.05 314.35H511.4C501 292.683 486.267 276.433 467.2 265.6C448.567 254.767 426.9 249.35 402.2 249.35C375.767 249.35 352.15 255.633 331.35 268.2C310.983 280.333 294.95 297.667 283.25 320.2C271.983 342.733 266.35 369.167 266.35 399.5C266.35 429.4 271.983 455.833 283.25 478.8C294.95 501.333 310.983 518.883 331.35 531.45C352.15 543.583 375.767 549.65 402.2 549.65C426.9 549.65 448.567 544.233 467.2 533.4C486.267 522.133 501 505.667 511.4 484H616.05C600.883 530.367 574.233 566.55 536.1 592.55C498.4 618.117 453.983 630.9 402.85 630.9C359.517 630.9 320.3 621.15 285.2 601.65C250.533 581.717 223.017 554.2 202.65 519.1C182.717 484 172.75 444.133 172.75 399.5Z" fill="white"/>
</svg>
